<svg id="Layer_1" data-name="Layer 1" xmlns="http://www.w3.org/2000/svg" viewBox="0 0 100 100"><defs><style>.cls-1{fill:#00594e;}</style></defs><path class="cls-1" d="M29.07,42.55H29a.94.94,0,0,0-.63.24l-8,6.89-.16.15a1,1,0,0,0,1.3,1.44l8.1-7a1,1,0,0,0,.11-1.38A1,1,0,0,0,29.07,42.55Z"/><path class="cls-1" d="M48,25.51c-4.62.07-8.39,1.53-10.38,4a1,1,0,0,0,.14,1.37h0a1,1,0,0,0,1.36-.14c1.6-2,4.92-3.23,8.89-3.29a1,1,0,0,0,.68-.29,1,1,0,0,0,.27-.7A1,1,0,0,0,48,25.51Z"/><path class="cls-1" d="M90.11,46.45h0c1.07-2.27.68-4.9-1.11-7.41C84.65,32.93,71.48,27,70.92,26.71S57.22,20.59,46.71,20c-6.87-.43-12.5,1.43-15.06,5a7.54,7.54,0,0,0-1.08,6.71l.07.23-.18.16L11.14,48.68A4.26,4.26,0,0,0,9.5,52.53a4.55,4.55,0,0,0,1.91,3l.3.22-.22.3c-.21.29-.42.58-.58.82a4.28,4.28,0,0,0-1.58,3.79,5.23,5.23,0,0,0,3.32,3.79l17.72,8a.92.92,0,0,0,.39.09l.33,0,5.23,5.23a1,1,0,0,0,1.18.13l2-1.28,6.09,2.74a10.6,10.6,0,0,0,4.31.87A9.91,9.91,0,0,0,56.25,78l6-5.17a1,1,0,0,0,.32-.55l.06-.28.46,0h.22c3.71-.29,5.42-3.84,5.85-5.9l0-.13a6.37,6.37,0,0,1,4.51-2.73,4.21,4.21,0,0,0,3.18-2.32l.1-.18.2,0c6.51-.58,11.15-2.83,12.75-6.17A6.81,6.81,0,0,0,89.39,48l-.13-.22.15-.2A6.68,6.68,0,0,0,90.11,46.45ZM13.44,62.63a3.43,3.43,0,0,1-2.2-2.29,2.36,2.36,0,0,1,1-2.08,1,1,0,0,0,.17-.18c.28-.41.61-.87.88-1.23l.18-.24,3.41,1.56L27.75,69.06ZM37.13,75.71,21.79,60.35,45,70.78ZM55,76.56a8,8,0,0,1-5.07,1.58,8.74,8.74,0,0,1-3.52-.69l-4.89-2.2,5.75-3.61.16,0a10.87,10.87,0,0,0,8.25-1.19l.18-.12.19.1a14.49,14.49,0,0,0,3.6,1.28l.74.16ZM75.6,58.9c-.19.82-.73,2.22-2.13,2.41a8.15,8.15,0,0,0-6.08,3.93.83.83,0,0,0-.1.29c0,.17-.75,4.26-4.14,4.53-.26,0-.53,0-.79,0a11.82,11.82,0,0,1-4.29-.85L57.49,69,74.78,54.1l.23.37A6.23,6.23,0,0,1,75.6,58.9Zm12.6-5.2c-1.2,2.52-4.89,4.33-10.13,5l-.46.06,0-.47a7.88,7.88,0,0,0-1.13-5l-.36-.54.65,0c4.54-.34,8.24-1.46,10.68-3.23l.37-.27.19.41A4.6,4.6,0,0,1,88.2,53.7Zm.17-8.1c-1.38,2.9-6,4.83-12.41,5.18a1,1,0,0,0-.63.29l-.09.07L55.16,68.46a8,8,0,0,1-5.06,1.59,8.55,8.55,0,0,1-3.52-.7l-33-14.81a3.35,3.35,0,0,1-2.19-2.29,2.32,2.32,0,0,1,1-2.08L32.24,33l.09-.08a1,1,0,0,0,.33-1.14,5.78,5.78,0,0,1,.54-5.75c2.13-2.94,7.26-4.53,13.4-4.17,10.18.62,23.41,6.53,23.54,6.59s13.25,6,17.3,11.69C88.4,41.53,89.34,43.56,88.37,45.6Z"/></svg>