<svg id="Layer_1" data-name="Layer 1" xmlns="http://www.w3.org/2000/svg" viewBox="0 0 100 100"><defs><style>.cls-1{fill:#00594e;}.cls-2{fill:none;stroke:#00594e;stroke-miterlimit:10;stroke-width:2px;}</style></defs><path class="cls-1" d="M45.73,65.88c-4.77,0-10.94-.06-18.35-.19C9.8,65.38,5,62.48,2.85,60.31a4.13,4.13,0,0,1-1.14-3.15l1.6.1A2.54,2.54,0,0,0,4,59.2c1.91,2,6.42,4.59,23.41,4.89,7.39.13,13.56.19,18.32.19h3.52s5,0,23.33-.19C89.47,63.91,94,61.21,96,59.2a2.59,2.59,0,0,0,.59-1l.11-.29v-5h1.6v5.29l-.19.52a4.08,4.08,0,0,1-1,1.62c-2.17,2.22-7.07,5.2-24.55,5.38-18.38.19-23.3.19-23.35.19l-.3,0Z"/><path class="cls-1" d="M45.73,61.43c-4.77,0-10.94-.07-18.35-.2C9.8,60.93,5,58,2.85,55.86a4.28,4.28,0,0,1-.66-5C3.54,48,7.7,45,14.55,42a61.91,61.91,0,0,1,6.65-2.38,2.58,2.58,0,0,1,.45-.13,88.17,88.17,0,0,1,13-2.67l.21,1.59A87.16,87.16,0,0,0,22,41.07a1.38,1.38,0,0,0-.3.09,58.81,58.81,0,0,0-6.54,2.34C7.12,47,4.46,49.8,3.64,51.56A2.69,2.69,0,0,0,4,54.74c1.91,2,6.42,4.6,23.41,4.89,7.39.13,13.56.2,18.32.2l3.28,0,.24,0s5,0,23.33-.19C89.47,59.46,94,56.76,96,54.74a2.69,2.69,0,0,0,.36-3.18c-.82-1.76-3.48-4.6-11.54-8.06-14.9-6.4-32-6.08-33.94-6-.41,0-2.36-.06-5.27,0l0-1.59c2.88-.11,4.8-.07,5.31,0,1.9-.07,19.36-.4,34.58,6.14C92.3,45,96.46,48,97.81,50.89a4.28,4.28,0,0,1-.66,5C95,58.08,90.08,61.05,72.6,61.24c-18.38.18-23.3.19-23.35.19l-.3,0Z"/><line class="cls-2" x1="2.5" y1="52.98" x2="2.5" y2="57.21"/><path class="cls-1" d="M80.88,56.85H18.08A3.55,3.55,0,0,1,16,50.43L37.23,34.81a3.57,3.57,0,0,1,3.19-.52L83,47.86a3.55,3.55,0,0,1,2.09,5l-1,2.06A3.56,3.56,0,0,1,80.88,56.85Zm-64-5.13a2,2,0,0,0,1.16,3.53h62.8a1.94,1.94,0,0,0,1.74-1.07l1-2a2,2,0,0,0,.06-1.64,2,2,0,0,0-1.21-1.11L39.93,35.81a2,2,0,0,0-1.75.29Z"/><path class="cls-1" d="M40.08,52.74c-4.83,0-14-.85-14-4.09s9.15-4.1,14-4.1a56.55,56.55,0,0,1,11.09,1l-.39,1.55a56,56,0,0,0-10.7-.92c-8.17,0-12.38,1.75-12.38,2.5s4.21,2.49,12.38,2.49a38.13,38.13,0,0,0,9.69-1.08l.43,1.53A39.12,39.12,0,0,1,40.08,52.74Z"/><path class="cls-1" d="M57,52.24c-4.45,0-12-.75-12-3.59s7.53-3.6,12-3.6,12,.76,12,3.6S61.45,52.24,57,52.24Zm0-5.59c-6.41,0-10.16,1.31-10.38,2,.22.66,4,2,10.38,2s10.1-1.29,10.38-2C67.1,47.94,63.36,46.65,57,46.65Z"/></svg>