<svg id="Layer_1" data-name="Layer 1" xmlns="http://www.w3.org/2000/svg" viewBox="0 0 100 100"><defs><style>.cls-1{fill:#00594e;}</style></defs><path class="cls-1" d="M94.26,37H58.39c1.21-1.72,2.15-4.9-.55-8.33a5,5,0,0,1-1.34-3.62A3.33,3.33,0,0,1,57.66,23a.9.9,0,0,0-.38-1.61.91.91,0,0,0-.66.16,5.19,5.19,0,0,0-1.88,3.26,6.65,6.65,0,0,0,1.71,5c2.34,3,1.15,5.6.07,6.7a.87.87,0,0,0-.24.52H5.74a.86.86,0,0,0-.86.86,45.16,45.16,0,0,0,27.2,41.43v8a.86.86,0,0,0,.87.86h34.1a.86.86,0,0,0,.87-.86v-8A45.19,45.19,0,0,0,95.13,37.86.87.87,0,0,0,94.26,37ZM66.19,86.47H33.81V80a45.19,45.19,0,0,0,32.38,0Zm14.5-17.92a43.28,43.28,0,0,1-13.92,9.36h0l-.07,0a42.93,42.93,0,0,1-8.11,2.47,43.83,43.83,0,0,1-17.08,0,42.93,42.93,0,0,1-8.13-2.48h-.06a43.52,43.52,0,0,1-25-28c1.15-.34,14.31-3.9,36.57,5A36.11,36.11,0,0,0,58.28,57.7C65.42,57.7,71,55,76.34,52.43c5.11-2.46,10-4.79,15.91-4.64A43.16,43.16,0,0,1,80.69,68.55ZM92.6,46.16C86.1,45.9,81,48.35,75.61,51c-8,3.88-16.33,7.88-30.13,2.38-22.53-9-35.89-5.54-37.61-5a43.76,43.76,0,0,1-1.26-9.59H93.39A43.76,43.76,0,0,1,92.6,46.16Z"/><path class="cls-1" d="M42.23,30.2a.9.9,0,0,0,0,1.26.94.94,0,0,0,.62.26h0a.89.89,0,0,0,.63-.25c1.41-1.38,3.24-5.06.07-9.08a5,5,0,0,1-1.34-3.63,3.3,3.3,0,0,1,1.16-2.1.89.89,0,0,0,.2-1.24.88.88,0,0,0-1.24-.2,5.11,5.11,0,0,0-1.88,3.26,6.62,6.62,0,0,0,1.71,5C44.5,26.46,43.31,29.1,42.23,30.2Z"/></svg>