<svg id="Layer_1" data-name="Layer 1" xmlns="http://www.w3.org/2000/svg" viewBox="0 0 100 100"><defs><style>.cls-1{fill:#00594e;}</style></defs><path class="cls-1" d="M94.26,37h-6.2l-.74-.43c-19.41-9.21-39.43-6-43.1-5.25a9.75,9.75,0,0,0-.81-4.12,9.71,9.71,0,0,0-17.65-.36,9.77,9.77,0,0,0-3.08-.7,9.74,9.74,0,0,0-10.29,9.18,10.48,10.48,0,0,0,0,1.68H5.74a.86.86,0,0,0-.86.86,45.16,45.16,0,0,0,27.2,41.43v8a.86.86,0,0,0,.87.86h34.1a.86.86,0,0,0,.87-.86v-8A45.19,45.19,0,0,0,95.13,37.86.87.87,0,0,0,94.26,37Zm-50.2-4.12c1.47-.31,21.06-4.27,40.57,4.12H42.23A9.86,9.86,0,0,0,44.06,32.88ZM31.14,23.45A8.35,8.35,0,0,1,40.39,37h-.64a9.66,9.66,0,0,0-7.58-3.69l-.67,0A9.81,9.81,0,0,0,27,27.46,8.37,8.37,0,0,1,31.14,23.45ZM37.87,37H26.46a8.25,8.25,0,0,1,11.41,0ZM13.78,35.4a8.34,8.34,0,0,1,16.33-1.87A9.71,9.71,0,0,0,24.57,37H13.85A8.65,8.65,0,0,1,13.78,35.4ZM66.19,86.47H33.81V80a45.19,45.19,0,0,0,32.38,0Zm14.5-17.92a43.28,43.28,0,0,1-13.92,9.36h0l-.07,0a42.93,42.93,0,0,1-8.11,2.47,43.83,43.83,0,0,1-17.08,0,42.93,42.93,0,0,1-8.13-2.48h-.06A43.54,43.54,0,0,1,8.12,49.27H64.54a.87.87,0,1,0,0-1.73H7.69a43.87,43.87,0,0,1-1.08-8.82H88l.11.07,0-.07h5.21A43.17,43.17,0,0,1,80.69,68.55Z"/><path class="cls-1" d="M17.51,34.4l.61.35.06.71a1.2,1.2,0,0,0,.76,1,1.32,1.32,0,0,0,.44.08,1.14,1.14,0,0,0,.8-.32l.53-.48.69.17a1.22,1.22,0,0,0,1.2-.41,1.2,1.2,0,0,0,.16-1.26l-.29-.65.36-.61a1.21,1.21,0,0,0,0-1.27,1.18,1.18,0,0,0-1.15-.54l-.7.07-.46-.53a1.2,1.2,0,0,0-2.08.54l-.15.7-.65.28a1.2,1.2,0,0,0-.12,2.15Zm1.41-1.19a1.16,1.16,0,0,0,.7-.86l.09-.42.28.32a1.16,1.16,0,0,0,1,.41l.42,0-.21.37a1.18,1.18,0,0,0-.07,1.11l.18.39-.42-.1a1.23,1.23,0,0,0-1.08.29l-.31.28,0-.42a1.2,1.2,0,0,0-.61-.94l-.36-.21Z"/><path class="cls-1" d="M33.31,29.57l.66.25.17.68a1.2,1.2,0,0,0,.91.89,1.15,1.15,0,0,0,.26,0,1.21,1.21,0,0,0,.93-.45l.44-.56.71.05a1.2,1.2,0,0,0,1.08-1.86L38.08,28l.27-.66a1.21,1.21,0,0,0-.21-1.25,1.18,1.18,0,0,0-1.22-.36l-.68.18-.54-.45a1.19,1.19,0,0,0-1.26-.18,1.17,1.17,0,0,0-.71,1l0,.71-.6.38a1.19,1.19,0,0,0-.56,1.14A1.2,1.2,0,0,0,33.31,29.57Zm1.21-1.4h0a1.22,1.22,0,0,0,.56-1l0-.43.32.28a1.19,1.19,0,0,0,1.09.23l.41-.11-.16.4a1.19,1.19,0,0,0,.11,1.11l.23.35-.42,0a1.17,1.17,0,0,0-1,.45l-.26.33-.11-.41a1.19,1.19,0,0,0-.74-.83l-.39-.15Z"/><path class="cls-1" d="M77,47.54H70.66a.87.87,0,0,0,0,1.73H77a.87.87,0,0,0,0-1.73Z"/></svg>