<svg id="Layer_1" data-name="Layer 1" xmlns="http://www.w3.org/2000/svg" viewBox="0 0 100 100"><defs><style>.cls-1{fill:#00594e;}</style></defs><path class="cls-1" d="M40.85,20.6a1.12,1.12,0,0,0-.44-.09,1.14,1.14,0,0,0-.4.08,34.54,34.54,0,0,0-19.15,19,1.11,1.11,0,0,0,0,.84,1.09,1.09,0,0,0,.6.59,1.11,1.11,0,0,0,1.42-.6A32.33,32.33,0,0,1,40.82,22.62a1.1,1.1,0,0,0,0-2Z"/><path class="cls-1" d="M86.67,46.1a6.91,6.91,0,0,1-6.78-6.88c0-.21,0-.42,0-.62a1.09,1.09,0,0,0-.33-.89,1.11,1.11,0,0,0-.91-.3,10.58,10.58,0,0,1-1.48.12A10.33,10.33,0,0,1,66.88,27.21a10.17,10.17,0,0,1,.55-3.31,1.12,1.12,0,0,0-.32-1.18,6.85,6.85,0,0,1-2.39-5.2,7.28,7.28,0,0,1,.14-1.39,1.09,1.09,0,0,0-.66-1.24A37.87,37.87,0,1,0,87.87,50c0-.88,0-1.79-.12-2.89A1.08,1.08,0,0,0,86.67,46.1ZM50,85.68a35.68,35.68,0,0,1,0-71.36,35.32,35.32,0,0,1,12.43,2.24l.14.05v.15c0,.25,0,.51,0,.76a9,9,0,0,0,2.53,6.28l.08.08,0,.11A12.52,12.52,0,0,0,77.2,39.72h.51l0,.19a9.12,9.12,0,0,0,7.73,8.29l.17,0v.16c0,.57,0,1.1,0,1.62A35.73,35.73,0,0,1,50,85.68Z"/><path class="cls-1" d="M30.33,50.55A7.41,7.41,0,1,0,37.74,58,7.41,7.41,0,0,0,30.33,50.55Zm0,12.62A5.22,5.22,0,1,1,35.55,58,5.22,5.22,0,0,1,30.33,63.17Z"/><path class="cls-1" d="M70.2,52a6.68,6.68,0,1,0,6.67,6.67A6.68,6.68,0,0,0,70.2,52Zm0,11.16a4.49,4.49,0,1,1,4.48-4.49A4.49,4.49,0,0,1,70.2,63.17Z"/><path class="cls-1" d="M52.94,19.65a6,6,0,1,0,6,6A6,6,0,0,0,52.94,19.65Zm0,9.88a3.85,3.85,0,1,1,3.85-3.85A3.85,3.85,0,0,1,52.94,29.53Z"/><path class="cls-1" d="M54.18,43.19a5.31,5.31,0,1,0-5.31,5.31A5.31,5.31,0,0,0,54.18,43.19Zm-8.43,0a3.12,3.12,0,1,1,3.12,3.12A3.12,3.12,0,0,1,45.75,43.19Z"/><path class="cls-1" d="M51.51,65.6a5.31,5.31,0,1,0,5.31,5.31A5.32,5.32,0,0,0,51.51,65.6Zm0,8.43a3.12,3.12,0,1,1,3.12-3.12A3.12,3.12,0,0,1,51.51,74Z"/><path class="cls-1" d="M32.22,43.08a1.78,1.78,0,0,0,1.35.25,1.8,1.8,0,0,0-.38-3.56,2.58,2.58,0,0,0-.38,0,1.79,1.79,0,0,0-.59,3.27Z"/><path class="cls-1" d="M55.72,56.89a1.69,1.69,0,0,0-.38,0,1.81,1.81,0,0,0-1.13.78,1.8,1.8,0,0,0,3,1.95,1.79,1.79,0,0,0-1.51-2.77Z"/><path class="cls-1" d="M64.47,44.66a1.8,1.8,0,0,0-.38-3.55,1.64,1.64,0,0,0-.38,0,1.8,1.8,0,1,0,.76,3.51Z"/><path class="cls-1" d="M34.62,70.65a1.8,1.8,0,1,0,.17,3.59,1.81,1.81,0,0,0,1.71-1.88,1.78,1.78,0,0,0-.59-1.25A1.72,1.72,0,0,0,34.62,70.65Z"/><path class="cls-1" d="M66.61,72.64h-.09a1.79,1.79,0,1,0,1.42,3,1.79,1.79,0,0,0-.12-2.54A1.8,1.8,0,0,0,66.61,72.64Z"/></svg>