<svg id="Layer_1" data-name="Layer 1" xmlns="http://www.w3.org/2000/svg" viewBox="0 0 481.89 201.86"><defs><style>.cls-1,.cls-2{fill:#fff;}.cls-2{fill-rule:evenodd;}</style></defs><path class="cls-1" d="M119.42,43.08l0-3.06c-.21-5.23-2.75-7.82-7.61-7.8q-6.44.06-8.39,4.14a9.25,9.25,0,0,0-1.16,4l-.09,5.38V71.51q0,7,1.11,9c1.48,2.79,4,4.17,7.7,4.17,4.79,0,7.5-2.81,8.12-8.34l.37-4.22V69.93h9V72.2l-.09,4.09q-.42,7.32-4.08,11.22A12.11,12.11,0,0,1,119,90.89a24.05,24.05,0,0,1-7.79,1.21,26.49,26.49,0,0,1-6.91-.79Q93.17,88.76,93.12,73V46.93A57.94,57.94,0,0,1,93.54,39,16.23,16.23,0,0,1,96,31.62q4.32-6.63,15.44-6.77Q127,25,128.18,37.05a49.73,49.73,0,0,1,.23,5.15v2.55h-9Z"/><path class="cls-1" d="M161,25.78h5.38a29.32,29.32,0,0,1,5.7.6q10,1.95,10.11,15.68,0,7.19-2.64,11-2.55,3.57-9.93,4.83a17,17,0,0,1,6.59,1.71,7.82,7.82,0,0,1,3.62,5.66,48.06,48.06,0,0,1,.6,6.07l.37,7.7a48.83,48.83,0,0,0,.74,6.91,43.94,43.94,0,0,0,1.3,5.24h-9.37L172.56,87a29.17,29.17,0,0,1-.51-4.5l-.32-5.89-.33-6.12q-.6-7-5.47-8.44a18.43,18.43,0,0,0-4.73-.56H155V91.17h-9V25.78Zm-6,7.37v21h6.45a25.86,25.86,0,0,0,5-.42,7.42,7.42,0,0,0,5.75-4.08q1-2.17,1-7.24,0-5.48-3-7.6c-1.45-1.05-4.19-1.6-8.21-1.63Z"/><path class="cls-1" d="M208,25.78V91.17h-9V25.78Z"/><path class="cls-1" d="M232.79,69.24V72.9a20.06,20.06,0,0,0,.56,5.19c.89,4.45,3.82,6.67,8.77,6.63a12,12,0,0,0,5-.92q5.06-2,5.24-9.32A9.75,9.75,0,0,0,249,66.64a42.3,42.3,0,0,0-5.61-3.76l-6.53-3.66a36,36,0,0,1-6.5-4.41Q225,50.18,225,41.46q.11-9.53,6.08-13.5,4.46-3,12.25-3.11,9.5,0,13.72,4.45,3.35,3.59,3.34,14v1.3h-9V43l-.19-3.38q-.84-7.56-8-7.43-9.1.06-9.19,9,0,5.72,5.71,9.28,3.53,2.27,8,4.57a55.57,55.57,0,0,1,7.24,4.33q6.54,4.92,6.54,14.75-.14,18-19.25,17.95-8.21.09-12.61-3.34-5.2-4.08-5.62-11.64l-.13-5.29V69.24Z"/><path class="cls-1" d="M291.55,25.78q5,0,7.88.32a13.58,13.58,0,0,1,7.28,2.79q5.52,4.35,5.47,14.23-.09,19.2-17.06,19.16h-8.68V91.17h-9V25.78Zm-5.11,7.37V54.9h7.33c3.81,0,6.38-1,7.75-2.92q1.62-2.26,1.67-8.39c0-3.78-.84-6.45-2.51-8s-4.42-2.38-8.25-2.41Z"/><path class="cls-1" d="M152.42,131l0-3.06q-.31-7.83-7.6-7.79-6.45,0-8.4,4.13a9.31,9.31,0,0,0-1.15,4l-.1,5.38v25.78q0,7,1.11,9,2.24,4.17,7.7,4.17,7.19,0,8.12-8.35l.37-4.22v-2.22h9v2.27l-.09,4.08q-.42,7.32-4.09,11.22a12,12,0,0,1-5.24,3.38,24,24,0,0,1-7.79,1.21,26.54,26.54,0,0,1-6.91-.79q-11.13-2.55-11.18-18.31V134.88a57.79,57.79,0,0,1,.42-7.88,16.15,16.15,0,0,1,2.41-7.42q4.32-6.63,15.45-6.77,15.63.14,16.78,12.19a49.66,49.66,0,0,1,.24,5.15v2.55h-9Z"/><path class="cls-1" d="M178.9,113.73h9v27.74h19V113.73h9v65.4h-9V148.84h-19v30.29h-9Z"/><path class="cls-1" d="M233.66,134.83q0-8,1.21-11.77a12.88,12.88,0,0,1,7.93-8.4,24.66,24.66,0,0,1,9.55-1.85,25,25,0,0,1,9.56,1.85,13.06,13.06,0,0,1,7.88,8.4q1.15,3.7,1.25,11.77v21.9a88.2,88.2,0,0,1-.51,10.25q-1.53,13-17.9,13.07-11.92,0-16-6.07-3-4.59-3-17.25Zm9,21.85q0,8.25,1,10.71a7.47,7.47,0,0,0,3.48,3.9,10.27,10.27,0,0,0,5.24,1.39,9.6,9.6,0,0,0,4.73-1.16q4.28-2.13,4.68-7.52c.16-2,.25-4.48.28-7.32V134.79q0-7.09-1.3-10-2.13-4.69-8.39-4.64a10.92,10.92,0,0,0-4.54,1q-4.41,1.91-4.92,7.61a50.14,50.14,0,0,0-.23,6Z"/><path class="cls-1" d="M303,113.73c3.35,0,6,.14,7.89.33a13.57,13.57,0,0,1,7.28,2.78q5.52,4.36,5.47,14.24-.09,19.2-17.06,19.15h-8.68v28.9h-9v-65.4Zm-5.1,7.38v21.75h7.33c3.8,0,6.38-1,7.75-2.92,1.08-1.52,1.64-4.32,1.66-8.4q0-5.66-2.5-8t-8.25-2.41Z"/><path class="cls-1" d="M352.7,113.73c3.34,0,6,.14,7.88.33a13.6,13.6,0,0,1,7.29,2.78q5.5,4.36,5.47,14.24-.1,19.2-17.07,19.15H347.6v28.9h-9v-65.4Zm-5.1,7.38v21.75h7.33c3.8,0,6.38-1,7.74-2.92q1.62-2.28,1.67-8.4c0-3.77-.84-6.44-2.5-8s-4.42-2.38-8.26-2.41Z"/><path class="cls-1" d="M388.17,113.73h29.45v7.38H397.17v20.73h19.2v7.37h-19.2v22.54h21.06v7.38H388.17Z"/><path class="cls-1" d="M434.54,113.73h16a49.2,49.2,0,0,1,7.56.56,16.74,16.74,0,0,1,7.19,2.74,13.93,13.93,0,0,1,6.26,10.11,62.86,62.86,0,0,1,.47,7.19V158.4q-.15,12.09-4.23,16.27a14,14,0,0,1-7.46,4.08,57.67,57.67,0,0,1-8.58.38H434.54Zm9,7.38v50.64h8.31q7.45,0,9.55-3.85,1.71-3.24,1.66-10.71V135q0-7.47-1.8-10.25-2.37-3.57-9.41-3.66Z"/><path class="cls-2" d="M34.78,72.06c-7.19,8.72-5.19,17.58.06,25.49,9.27,14,19.24,27.53,29.32,41,6.08,8.11,12.73,15.83,19.47,23.44,5.13,5.79,10.6,11.5,19.83,10.3-5.53,7.44-14.17,9-21.62,3.77a45,45,0,0,1-9.59-9.1C57.52,148,42.83,129,28.56,109.69c-5.2-7-9.16-14.94-6.42-24.28,1.93-6.52,6-11.11,12.64-13.35"/><path class="cls-2" d="M46.71,174.61c-11.55,7.49-25,4.49-32.29-6.36A27.7,27.7,0,0,1,22,130c-3.43,10.12-4.63,19.73-.11,29.2,4.8,10.05,13.47,14.14,24.81,15.38"/><path class="cls-2" d="M88,136c.06-9.19,1-18-10-22H98.08c-3.54,7.76-6.8,14.89-10.07,22"/><path class="cls-2" d="M55.09,70.7S68,70,71.37,82.21c0,0,2.21,14-12.58,19,0,0,14.79-20.22-3.7-30.51"/></svg>