<svg id="Layer_1" data-name="Layer 1" xmlns="http://www.w3.org/2000/svg" viewBox="0 0 100 100"><defs><style>.cls-1{fill:#00594e;}</style></defs><path class="cls-1" d="M75.91,25H38.39L34.9,12.5a.93.93,0,0,0-.9-.68H24.09a.94.94,0,0,0,0,1.88h9.2L36.44,25H27.49a.95.95,0,0,0,0,1.89h2.7L37,84.23A4.25,4.25,0,0,0,41.2,88H63a4.25,4.25,0,0,0,4.22-3.81l6-57.33h2.69a.95.95,0,0,0,0-1.89ZM65.31,84A2.36,2.36,0,0,1,63,86.1H41.2A2.37,2.37,0,0,1,38.86,84L32.08,26.85H71.33Z"/><path class="cls-1" d="M63.06,59.91h0a1,1,0,0,0,1-.83L67.29,31a.94.94,0,0,0-.83-1h-.11a1,1,0,0,0-.58.2.94.94,0,0,0-.35.64L62.24,58.87A.94.94,0,0,0,63.06,59.91Z"/></svg>