<svg id="Layer_1" data-name="Layer 1" xmlns="http://www.w3.org/2000/svg" viewBox="0 0 100 100"><defs><style>.cls-1{fill:#00594e;}</style></defs><path class="cls-1" d="M42.05,49.22a1,1,0,0,0-1.34.25L28.4,67.74a1,1,0,0,0,.27,1.34A1,1,0,0,0,30,68.82L42.31,50.55A1,1,0,0,0,42.05,49.22Z"/><path class="cls-1" d="M46.14,56.53a1,1,0,0,0-1.33.25L34.61,71.92A1,1,0,1,0,36.21,73l10.2-15.14A1,1,0,0,0,46.14,56.53Z"/><path class="cls-1" d="M48.56,65a1,1,0,0,0-1.33.25l-7,10.47a1,1,0,0,0,1.6,1.08l7-10.47A1,1,0,0,0,48.56,65Z"/><path class="cls-1" d="M81.19,38.88l-1-1.74,0-.1c2-7.47-3-14.49-7.15-17.09C70,18,68.33,18.59,66.61,19.2a9,9,0,0,1-2.68.63c-2.8.15-5.14-3.2-5.39-3.57a5.84,5.84,0,0,0-7.71-2.65c-3.07,1.3-2.91,7-2.85,8.17v.06L44.82,28.4l-.27-.13-.49-.07-.16,0-.21.09-.07,0a.63.63,0,0,0-.12.1.79.79,0,0,0-.12.15L21.57,61a12.89,12.89,0,0,0,3.57,17.87l8.93,6A12.9,12.9,0,0,0,52,81.46l21.9-32.55v0a1.86,1.86,0,0,0,0-.19.53.53,0,0,0,0-.18,1,1,0,0,0-.25-.61l-.16-.17L81.05,40A1,1,0,0,0,81.19,38.88ZM49.89,21.39c-.07-1.94.21-5.38,1.71-6a4,4,0,0,1,5.25,1.79c0,.05,3,4.82,7.2,4.58A10.89,10.89,0,0,0,67.27,21c1.54-.55,2.47-.88,4.8.57l.35.23A14.85,14.85,0,0,1,78.77,33.7v.91l-1.12-2a1,1,0,0,0-1.3-.38c-1.43.76-2.75,1.48-3.92,2.12l-.21.12-5.32-9.1a1,1,0,0,0-1-.47L57,26.31l-7.13-4.8Zm16,16.92-.3-2a1,1,0,0,0-.69-.79l-8.75-2.6.22-.29a.88.88,0,0,0,.17-.35l1-4.12,8-1.25,5,8.52-.22.13c-1.78,1-3.12,1.84-4.08,2.51Zm-1,6.62-.32,0a20.43,20.43,0,0,0-11,1.62l-.25.11L53.21,46c-.72-2.12-1.58-4.31-2.54-6.5l-.06-.13,3.4-5,9.78,2.9ZM54.7,32.5l-.84-.25a.94.94,0,0,0-1.06.38l-3.13,4.64-.19-.4c-1.35-2.83-2.58-5-3.38-6.42L46,30.34l3.32-6.88,6.35,4.27-1,4.08a1.08,1.08,0,0,0,0,.32ZM35.14,83.28l-8.94-6a11,11,0,0,1-3-15.2l21-31.14.2.35c3.93,6.71,16,30,7.24,47.33l-1.21,1.78A11,11,0,0,1,35.14,83.28Zm20.69-11L56,71.12c1.19-6.64.53-14.19-1.95-22.44L54,48.47l.19-.09c7.24-3.39,14.37-.85,17.1.4l.27.12ZM71.69,46.83l-.15-.06a25.52,25.52,0,0,0-4.41-1.44l-.17,0-.73-4.83.11-.09a96.06,96.06,0,0,1,9.88-5.85l.21-.12,2.73,4.78Z"/></svg>