<svg id="Layer_1" data-name="Layer 1" xmlns="http://www.w3.org/2000/svg" viewBox="0 0 100 100"><defs><style>.cls-1{fill:none;stroke:#00594e;stroke-miterlimit:10;stroke-width:2px;}.cls-2{fill:#00594e;fill-rule:evenodd;}</style></defs><circle class="cls-1" cx="50.27" cy="50" r="45.57"/><path class="cls-2" d="M77.33,60V40a1.33,1.33,0,0,0-2.27-.94l-8.41,8.42-.4-.89C63,39.46,54.44,34.67,45,34.67a27,27,0,0,0-9.21,1.6l-.18,0A21,21,0,0,0,24.47,45.2c-.28.49-.53,1-.74,1.42h0l-.07.16A12.76,12.76,0,0,0,23.2,48a2.53,2.53,0,0,0-.12.36,12.34,12.34,0,0,0-.36,1.33,1.36,1.36,0,0,0,0,.6c.1.44.22.87.38,1.38,0,.11.08.23.12.35a12.76,12.76,0,0,0,.47,1.21l0,.12h0c.21.46.45.93.71,1.39A21.08,21.08,0,0,0,35.6,63.69l.12,0a27.46,27.46,0,0,0,20.85-.93A1.33,1.33,0,0,0,57.2,61a1.36,1.36,0,0,0-.76-.67,1.31,1.31,0,0,0-1,0,25.16,25.16,0,0,1-15.77,1.72l-1.08-.23.7-.86a17,17,0,0,0,0-22l-.7-.86,1.08-.23A25.09,25.09,0,0,1,45,37.33c9.54,0,17.78,5.26,19.6,12.5l0,.17,0,.16a13.41,13.41,0,0,1-2.51,5,1.33,1.33,0,0,0,2.09,1.64,16.82,16.82,0,0,0,2.06-3.41l.41-.89.18.18,8.23,8.24A1.33,1.33,0,0,0,77.33,60ZM40.68,50A15,15,0,0,1,36.1,60.6l-.33.32-.42-.18a19.11,19.11,0,0,1-7-5,14.26,14.26,0,0,1-1.46-2c-.11-.18-.21-.36-.31-.55l-.24-.44c-.15-.32-.3-.67-.44-1l-.12-.3c-.17-.49-.28-.85-.37-1.2l0-.19.06-.18a11.32,11.32,0,0,1,.35-1.13l.13-.34a10.78,10.78,0,0,1,.44-1c.06-.13.13-.25.2-.38s.24-.44.35-.62a15,15,0,0,1,1.44-2,19.19,19.19,0,0,1,7-5l.42-.18.33.32A15,15,0,0,1,40.68,50Zm34,6.8L67.87,50l.13-.12,6.68-6.68Z"/></svg>