<svg id="Layer_1" data-name="Layer 1" xmlns="http://www.w3.org/2000/svg" viewBox="0 0 100 100"><defs><style>.cls-1{fill:none;stroke:#00594e;stroke-miterlimit:10;stroke-width:2px;}.cls-2{fill:#00594e;}</style></defs><circle class="cls-1" cx="50.27" cy="50" r="45.57"/><path class="cls-2" d="M77.64,48.06a1.16,1.16,0,0,0-.27-.82,1.12,1.12,0,0,0-.62-.34l-.28-.06,0-.28c-.57-6.64-4.12-16.2-10.23-16.66a6.23,6.23,0,0,0-2.19.24l-.29.09L63.6,30c-1.31-2.34-4.7-7.54-9.06-7.54a5.39,5.39,0,0,0-.8.06c-2.8.41-5.15,3.06-6.62,7.47a27.17,27.17,0,0,0-1.13,12c.64,4.4,2.6,7.52,5.66,9l.22.11v.25a11.32,11.32,0,0,0,3,8.25l.18.2-.13.24a3.37,3.37,0,0,0-.37,1.28,3.19,3.19,0,0,0,2.93,3.4l12.3.92H70a3.11,3.11,0,0,0,2.23-.92,3.17,3.17,0,0,0,.94-2.23A3.09,3.09,0,0,0,73,61.26l-.1-.26.22-.17a11.31,11.31,0,0,0,4.18-7.94ZM66.05,32.15l.35.05c4,.67,7.1,7.7,7.76,14l0,.45L55.84,45.32l.11-.43C57.58,38.52,62,31.83,66.05,32.15Zm-12.54,13h-.27a1.2,1.2,0,0,0-.68.27,1.07,1.07,0,0,0-.38.74L52,48.64l-.57-.51a9.88,9.88,0,0,1-3.21-6.55l.37,0-.37,0a25.2,25.2,0,0,1,1-10.94C50.4,27.13,52.15,25,54,24.69h.45c2.21,0,4.85,2.35,7.06,6.28l.16.29-.27.19c-4.1,3-6.79,9.09-7.85,13.43ZM75,52.74a9.09,9.09,0,0,1-4.37,7.07,1.11,1.11,0,0,0-.4,1.53,1.22,1.22,0,0,0,.3.34A.91.91,0,0,1,70.74,63a1.06,1.06,0,0,1-.15.15.88.88,0,0,1-.59.22h-.08l-12.3-.92a.86.86,0,0,1-.63-.33.84.84,0,0,1-.21-.66.87.87,0,0,1,.47-.72,1.12,1.12,0,0,0,.41-1.53,1.18,1.18,0,0,0-.27-.32,9.07,9.07,0,0,1-3.29-7.68l.28-3.7L75.32,49Z"/><path class="cls-2" d="M60.5,38.25A1.12,1.12,0,0,0,61,39.73a1.24,1.24,0,0,0,.54.14,1.12,1.12,0,0,0,1-.6A6.4,6.4,0,0,1,65.2,37a1.12,1.12,0,0,0,.53-1.5,1.09,1.09,0,0,0-.63-.58,1.07,1.07,0,0,0-.39-.07,1.2,1.2,0,0,0-.48.11h0A8.36,8.36,0,0,0,60.5,38.25Z"/><path class="cls-2" d="M33.86,64.59c6.87,11.35,9.88,12.84,11.55,13a1.82,1.82,0,0,0,.33,0,1.23,1.23,0,0,0,.57-.13,1.17,1.17,0,0,0,.62-.45c1.22-1.24,2.44-4.33-.38-17.49A153.53,153.53,0,0,0,42,42.87a3.11,3.11,0,0,0-1.74-1.78,5,5,0,0,0-1.63-.33h-.42l.06-.42c.32-2.16.62-6-.9-7.69a2.64,2.64,0,0,0-2.29-.73,2.61,2.61,0,0,0-1.36.47l-.31.23-.21-.31a4.86,4.86,0,0,0-5.06-2,.76.76,0,0,0-.25.06l-.18.07a1.49,1.49,0,0,0-.25.13,4.89,4.89,0,0,0-2.33,4.9l.06.37-.37.05a2.69,2.69,0,0,0-1.29.57,2.65,2.65,0,0,0-1.19,2.14c0,2.5,3.45,5.34,4.5,6.15l.35.27-.32.3a5,5,0,0,0-1.07,1.53,3.16,3.16,0,0,0-.08,2.47A154.57,154.57,0,0,0,33.86,64.59Zm4.48-21.53a2.58,2.58,0,0,1,1.08.17.81.81,0,0,1,.53.49c.46,1.17,1.8,5.53,3.1,10.68l.08.32-3,1.2a1.17,1.17,0,0,0-.63.59,1.12,1.12,0,0,0,0,.86,1.09,1.09,0,0,0,1.07.72,1.15,1.15,0,0,0,.41-.08l2.72-1.15.1.43c.21.9.41,1.79.6,2.69,2.21,10.35,1.75,13.84,1.28,15l-.15.36-.35-.16c-1-.44-3.22-2.17-7.5-8.82L37.38,66,40,64.92a1.11,1.11,0,0,0,.62-.6,1.07,1.07,0,0,0,0-.86,1.12,1.12,0,0,0-1.46-.63l-3,1.2-.38-.61c-1.57-2.59-3.13-5.36-4.53-8L31.07,55l2.54-1a1.12,1.12,0,0,0,.61-.6,1.09,1.09,0,0,0,0-.85A1.1,1.1,0,0,0,32.78,52L30,53.08l-.16-.3a37.12,37.12,0,0,1-2-4.28.81.81,0,0,1,0-.71c.55-1.23,3.08-2.61,5.33-3.42l.09,0A14.74,14.74,0,0,1,38.34,43.06Zm-13.79-4.3V38.6l.23-.23.31-.21.15,0a1.63,1.63,0,0,1,.8.42,1.13,1.13,0,0,0,1.71-1.32c-.05-.15-1.29-3.58.81-4.7,2.27-.62,3.73,2.46,3.88,2.81a1.13,1.13,0,0,0,1.48.63,1.1,1.1,0,0,0,.68-.86,1.58,1.58,0,0,1,.3-.81L35,34.2h.62l.11.1c.8.76.58,4.29.18,6.55l0,.24-.24.06a16.87,16.87,0,0,0-2,.57l-.34.12-1.22-3a1.12,1.12,0,0,0-2.08.83l1.21,3-.34.14c-.56.25-1.11.52-1.64.82l-.22.12-.19-.15C27.07,42.26,24.46,39.78,24.55,38.76Z"/></svg>