<?xml version="1.0" encoding="utf-8"?>
<!-- Generator: Adobe Illustrator 24.2.0, SVG Export Plug-In . SVG Version: 6.00 Build 0)  -->
<svg version="1.1" id="Layer_1" xmlns="http://www.w3.org/2000/svg" xmlns:xlink="http://www.w3.org/1999/xlink" x="0px" y="0px"
	 viewBox="0 0 100 100" style="enable-background:new 0 0 100 100;" xml:space="preserve">
<style type="text/css">
	.st0{fill:#005B4E;}
	.st1{fill-rule:evenodd;clip-rule:evenodd;fill:#005B4E;}
</style>
<g>
	<g>
		<g>
			<path class="st0" d="M50.4,33.6h-0.3c-0.1-1.2-0.4-2.2-1-2.9c-0.6-0.7-1.4-1.1-2.6-1.1c-0.7,0-1.3,0.3-1.7,0.7
				c-0.4,0.5-0.6,1.1-0.6,1.7c0,1.3,1.1,2.1,3.5,2.9c1,0.4,2,0.8,2.7,1.6c0.7,0.7,1.1,1.8,1.1,3.4c0,1.6-0.7,2.7-1.6,3.4
				c-1,0.7-2.3,1.1-3.6,1.1c-0.8,0-1.7-0.1-2.5-0.4c-0.8-0.2-1.6-0.5-2-0.8v-4.1H42c0.1,1.5,0.5,2.7,1.2,3.6c0.7,0.9,1.7,1.4,3,1.4
				c0.8,0,1.5-0.3,2-0.8c0.5-0.5,0.8-1.1,0.8-1.9c0-1.7-1.2-2.7-3.7-3.7c-1.2-0.5-2-1-2.6-1.6c-0.6-0.6-0.9-1.4-0.9-2.5
				c0-1.3,0.5-2.5,1.3-3.2c0.8-0.7,2-1.2,3.2-1.2c0.9,0,1.8,0.2,2.5,0.4c0.7,0.2,1.2,0.5,1.6,0.7V33.6z"/>
		</g>
		<g>
			<path class="st0" d="M57.9,43.7h1.5c1.2,0,2.2-0.1,3-0.6c0.7-0.5,1.2-1.5,1.3-3.1H64v4H53.4v-0.3h1.2V29.9h-1.2v-0.3h5.9v0.3
				h-1.4V43.7z"/>
		</g>
		<g>
			<path class="st0" d="M40.5,48.3h3.2c0.5,0,1,0,1.4-0.1c0.5,0,1,0,1.6,0c1.2,0,2.5,0.1,3.4,0.6c1,0.5,1.6,1.3,1.6,2.6
				c0,1.2-0.5,1.9-1.2,2.4c-0.7,0.5-1.6,0.7-2.3,0.7v0c1.2,0,2.4,0.3,3.3,1c0.9,0.7,1.6,1.7,1.6,3.1c0,1.6-0.7,2.7-1.8,3.3
				c-1.2,0.7-2.8,0.9-4.5,0.9c-0.4,0-0.7,0-0.9,0c-0.3,0-0.6,0-0.8,0c-0.2,0-0.5,0-0.7,0c-0.2,0-0.5,0-0.7,0h-3.2v-0.3h1.2V48.6
				h-1.2V48.3z M45,54.5c0.9,0.1,1.7-0.1,2.4-0.7c0.6-0.5,1-1.3,1-2.6c0-1.2-0.4-2-1-2.3c-0.6-0.4-1.5-0.4-2.4-0.4V54.5z M45,62.5
				c1.4,0.2,2.6,0,3.5-0.6c0.8-0.6,1.3-1.7,1.3-3.4c0-1.6-0.6-2.6-1.5-3.1c-0.9-0.5-2.1-0.6-3.3-0.6V62.5z"/>
		</g>
		<g>
			<polygon class="st0" points="64.2,62.5 58.4,47.9 58.1,47.9 56.6,52 58.5,57 54.3,57 54.2,57.3 58.6,57.3 60.7,62.5 59.5,62.5 
				59.5,62.7 64.7,62.7 64.7,62.5 			"/>
		</g>
		<g>
			<path class="st0" d="M69.5,55.8v6.6h1.2v0.3H65v-0.3h1.2V48.6H65v-0.3h3.3c0.5,0,1,0,1.4-0.1c0.5,0,1,0,1.6,0
				c0.9,0,2.3,0.2,3.4,0.8c1.1,0.6,1.9,1.5,1.9,3c0,1.1-0.5,2-1.3,2.6c-0.8,0.6-1.9,0.9-3,1v0c1.6,0,2.7,0.4,3.3,1.1
				c0.6,0.7,0.7,1.6,0.7,2.5c0,0.9,0.1,1.5,0.2,1.9c0.1,0.4,0.4,0.6,0.7,0.6c0.2,0,0.4-0.1,0.5-0.3c0.1-0.1,0.1-0.1,0.1-0.2
				c0-0.1,0-0.1,0.1-0.1l0.2,0.1c-0.1,0.3-0.2,0.7-0.6,1.1c-0.4,0.4-1,0.7-1.9,0.7c-2,0-2.7-1.2-2.7-3.1c0-1.9-0.2-2.9-0.7-3.5
				C71.7,55.9,70.9,55.8,69.5,55.8z M69.5,55.5c2.6,0,3.7-1.3,3.7-3.7c0-1.4-0.4-2.3-1.1-2.7c-0.7-0.5-1.6-0.6-2.7-0.5V55.5z"/>
		</g>
		<g>
			<g>
				<rect x="55.4" y="71.1" class="st0" width="8.3" height="0.5"/>
			</g>
		</g>
		<g>
			<path class="st0" d="M75.7,31.2c-1.5-1.2-3.6-1.7-5.7-1.7c-0.2,0-0.5,0-0.7,0c0,0,0,0,0,0v0c-0.2,0-0.5,0-0.8,0H65v0.3h1.2v13.9
				H65V44h2.5c0.7,0,1.2,0,1.6,0v0c0.3,0,0.6,0,0.9,0c2.3,0,4.3-0.5,5.8-1.8c1.4-1.2,2.3-3.1,2.3-5.8C78.2,34.2,77.2,32.4,75.7,31.2
				z M73,42.6c-0.9,1-1.9,1.3-3.4,1.2v0V29.9v0c1.4-0.1,2.4,0.2,3.3,1c1,1,1.6,2.8,1.6,5.9C74.5,39.7,74,41.6,73,42.6z"/>
		</g>
	</g>
	<path class="st1" d="M31.1,37c0.3-0.6,0.2-0.8-0.1-1.1c-0.1-0.1-0.2-0.2-0.3-0.3c-0.3-0.4-0.8-0.7-1.3-0.7c-0.6,0-1.9-0.1-3.3,1.1
		c-1.4,1.3-1.9,3.5-2,3.9c-0.1,0.3-1.4,4.9,0,8.9c1.1,3.1,1.8,3.7,2.4,4.2c0.8,0.6,2.3,1.1,3.1,0.7c0.9-0.4,1.5-0.9,1.5-1.1
		c0.1-0.2,0-0.4-0.2-0.9c-0.1-0.4-0.7-2.5-0.8-2.8c-0.1-0.4-0.4-0.6-0.9-0.5c-0.6,0.1-1.3,0.1-1.7,0.1c-0.3,0-0.6-0.3-0.7-0.6
		c-0.1-0.4-0.6-1.6-0.6-3.6c0-1.6,0.4-3,0.6-3.4c0.1-0.4,0.5-0.4,0.7-0.4c0.3,0,0.6,0,0.9,0c0.3,0,0.5,0,0.7-0.1
		c0.3-0.1,0.4-0.3,0.5-0.5C29.8,39.7,30.7,37.8,31.1,37z"/>
</g>
</svg>
