<svg id="Layer_1" data-name="Layer 1" xmlns="http://www.w3.org/2000/svg" viewBox="0 0 100 100"><defs><style>.cls-1{fill:none;stroke:#00594e;stroke-miterlimit:10;stroke-width:2px;}.cls-2{fill:#00594e;}</style></defs><circle class="cls-1" cx="50.27" cy="50" r="45.57"/><path class="cls-2" d="M26,80.55H39.7a1.15,1.15,0,0,0,1.15,1.1H41L76.17,78a1.17,1.17,0,0,0,1-1.15V59.15a1,1,0,0,0-.35-.84l-10-8.72a1.16,1.16,0,0,0-1.26-.16L50.94,56.59V52.9a55.83,55.83,0,0,0-6.53-26.14,3.14,3.14,0,0,0,2-2.94V21.5a3.16,3.16,0,0,0-3.15-3.15H30.44a3.16,3.16,0,0,0-3.15,3.15v2.32a3.14,3.14,0,0,0,2,2.94A55.83,55.83,0,0,0,22.8,52.9V77.39A3.16,3.16,0,0,0,26,80.55ZM75.15,74a1.53,1.53,0,0,1-1.29-1.76,1.55,1.55,0,0,1,1.29-1.29Zm0-5.11a3.6,3.6,0,0,0,0,7.18v0L41.76,79.49V63.66l33.38-3.44ZM60,59.71a.86.86,0,0,0,.05-.32,1.83,1.83,0,0,1,3.65-.06Zm7-7.26.31.26a.2.2,0,0,1-.28.06.21.21,0,0,1-.09-.17.2.2,0,0,1,.06-.15Zm-1.5-.69a1.84,1.84,0,0,0,3,2l5.19,4.51-8,.82a3.88,3.88,0,0,0-7.75.27,1.07,1.07,0,0,0,.14.52L46.36,61.12ZM29.35,21.5a1.1,1.1,0,0,1,1.1-1.1H43.3a1.09,1.09,0,0,1,1.09,1.1v2.31A1.09,1.09,0,0,1,43.3,24.9H30.44a1.09,1.09,0,0,1-1.09-1.09ZM31.56,27H42.19A53.43,53.43,0,0,1,46.9,38.44a5.52,5.52,0,0,1-1.74-.93,6.92,6.92,0,0,0-8.53,0,4.88,4.88,0,0,1-6.17,0,6.86,6.86,0,0,0-2.91-1.35,54.41,54.41,0,0,1,4-9.2ZM24.86,52.9a53.73,53.73,0,0,1,2.07-14.75,4.84,4.84,0,0,1,2.35,1.05,6.91,6.91,0,0,0,8.52,0,4.68,4.68,0,0,1,3.09-1.1A4.63,4.63,0,0,1,44,39.2a6.69,6.69,0,0,0,3.48,1.43A53.43,53.43,0,0,1,48.88,52.9v4.7l-8.61,4.21a1,1,0,0,0-.57,1V78.5H26a1.11,1.11,0,0,1-1.11-1.11Z"/><path class="cls-2" d="M45.65,69.09a2.05,2.05,0,1,0-2-2A2,2,0,0,0,45.65,69.09Zm0-2.06a0,0,0,0,1,0,0h0a0,0,0,0,1,0,0Z"/><path class="cls-2" d="M59.58,72.82a2.9,2.9,0,1,0-2.9-2.9A2.9,2.9,0,0,0,59.58,72.82Zm0-3.73a.84.84,0,1,1-.84.84h0a.84.84,0,0,1,.84-.83Z"/><path class="cls-2" d="M68.33,65.41a1.85,1.85,0,1,0-1.85-1.85h0A1.85,1.85,0,0,0,68.33,65.41Zm0-2.06a.21.21,0,0,1,.21.21.21.21,0,0,1-.22.2.2.2,0,0,1-.2-.2.21.21,0,0,1,.21-.21Z"/><path class="cls-2" d="M46.24,78A2.64,2.64,0,1,0,43.6,75.4h0A2.64,2.64,0,0,0,46.24,78Zm0-3.23a.59.59,0,1,1-.58.59h0A.58.58,0,0,1,46.24,74.81Z"/></svg>