<svg id="Layer_1" data-name="Layer 1" xmlns="http://www.w3.org/2000/svg" viewBox="0 0 100 100"><defs><style>.cls-1,.cls-2{fill:none;stroke:#00594e;stroke-miterlimit:10;stroke-width:2px;}.cls-2{stroke-linecap:round;}.cls-3{fill:#00594e;}</style></defs><circle class="cls-1" cx="50" cy="50" r="45.57"/><line class="cls-2" x1="60.81" y1="38.7" x2="83.46" y2="19.56"/><line class="cls-2" x1="14.14" y1="78.12" x2="35.14" y2="60.38"/><path class="cls-3" d="M42.68,65.48a12.72,12.72,0,0,0-11.79,2.09,1,1,0,0,0-.36,1.09,12.73,12.73,0,0,0,8.31,8.62h0a12.68,12.68,0,0,0,10.13-1v3.95a1,1,0,1,0,2.06,0V76.29a12.75,12.75,0,0,0,18.44-7.63,1,1,0,0,0-.36-1.09,12.72,12.72,0,0,0-11.79-2.09h0A12.68,12.68,0,0,0,51,70V62.7a12.73,12.73,0,0,0,17.31-4.93,12.41,12.41,0,0,0,1.13-2.71h0a.19.19,0,0,1,0-.07V54.9s0,0,0,0v0a.75.75,0,0,0,0-.33v0a1.11,1.11,0,0,0-.17-.3l0,0v0l0-.05h0l-.06,0h0a12.73,12.73,0,0,0-17.88,2.17l-.21.27V49.12a12.73,12.73,0,0,0,17.32-4.93,12,12,0,0,0,1.12-2.7h0a.24.24,0,0,0,0-.08s0,0,0,0a.2.2,0,0,1,0-.07s0,0,0,0v0a1,1,0,0,0,0-.34,0,0,0,0,0,0,0v0a.87.87,0,0,0-.16-.3l0,0,0,0,0,0,0,0-.06,0h0a12.73,12.73,0,0,0-17.88,2.17l-.21.27v-3a12.73,12.73,0,0,0-.59-20.91h0l-.06,0h0l-.05,0,0,0h0a1,1,0,0,0-.73,0h0l0,0-.07,0h0l-.06,0h0a12.72,12.72,0,0,0-5.5,10.64h0A12.73,12.73,0,0,0,49,39.63v3.2a12.74,12.74,0,0,0-17.81-2.66l-.27.21h0l-.06.06h0l0,.06,0,0v0a1.11,1.11,0,0,0-.17.3v0a.8.8,0,0,0,0,.34v.13s0,0,0,0a.25.25,0,0,0,0,.07h0A12.74,12.74,0,0,0,49,49.1v7.32a12.73,12.73,0,0,0-17.81-2.65l-.27.2h0l-.06.06h0l0,.06,0,0v0a1.11,1.11,0,0,0-.17.3v0a.78.78,0,0,0,0,.34V55s0,0,0,0l0,.08h0A12.74,12.74,0,0,0,49,62.7V70A12.7,12.7,0,0,0,42.68,65.48Zm15.28,2h0a10.67,10.67,0,0,1,9.32,1.34,10.69,10.69,0,0,1-13.65,6.46A10.44,10.44,0,0,1,51.21,74,10.68,10.68,0,0,1,58,67.43Zm0-13.59a10.66,10.66,0,0,1,9.32,1.33,10.68,10.68,0,0,1-13.65,6.47,10.85,10.85,0,0,1-2.42-1.24A10.64,10.64,0,0,1,58,53.85Zm0-13.6a10.67,10.67,0,0,1,9.32,1.34A10.68,10.68,0,0,1,53.63,48a10.41,10.41,0,0,1-2.42-1.23A10.64,10.64,0,0,1,58,40.25Zm-18.48,7.9a10.66,10.66,0,0,1-6.75-6.56,10.68,10.68,0,0,1,14.84,2.81,10.41,10.41,0,0,1,1.23,2.42A10.66,10.66,0,0,1,39.48,48.14Zm0,13.6a10.68,10.68,0,0,1-6.75-6.56A10.68,10.68,0,0,1,47.57,58,11,11,0,0,1,48.8,60.4a10.7,10.7,0,0,1-9.32,1.34Zm6.37-32.22h0a10.67,10.67,0,0,1,4-8.5A10.67,10.67,0,0,1,52,36a11,11,0,0,1-1.9,2A10.66,10.66,0,0,1,45.85,29.52ZM39.48,75.33h0a10.66,10.66,0,0,1-6.75-6.56A10.67,10.67,0,0,1,48.8,74,10.67,10.67,0,0,1,39.48,75.33Z"/></svg>