<svg id="Layer_1" data-name="Layer 1" xmlns="http://www.w3.org/2000/svg" viewBox="0 0 100 100"><defs><style>.cls-1{fill:none;stroke:#00594e;stroke-miterlimit:10;stroke-width:2px;}.cls-2{fill:#00594e;}</style></defs><circle class="cls-1" cx="50.27" cy="50" r="45.57"/><path class="cls-2" d="M50,82a.9.9,0,0,1-.5-.1C49.3,81.8,25,69.1,25,45a1,1,0,0,1,2,0c0,21.1,19.7,33,23,34.9C53.3,78,73,66.1,73,45a1,1,0,0,1,2,0c0,24.1-24.3,36.8-24.5,36.9A.9.9,0,0,1,50,82Z"/><path class="cls-2" d="M74,46H26a3,3,0,0,1-3-3A15,15,0,0,1,38,28H62A15,15,0,0,1,77,43,3,3,0,0,1,74,46ZM38,30A13,13,0,0,0,25,43a.94.94,0,0,0,1,1H74a.94.94,0,0,0,1-1A13,13,0,0,0,62,30Z"/><path class="cls-2" d="M52,30H48a.91.91,0,0,1-.8-.4,1.49,1.49,0,0,1-.2-.9l3-10a1.2,1.2,0,0,1,1-.7h8a1.05,1.05,0,0,1,.9.5.92.92,0,0,1-.1,1l-7,10A1,1,0,0,1,52,30Zm-2.7-2h2.1L57,20H51.7Z"/><path class="cls-2" d="M28.2,42H28a1,1,0,0,1-.8-1.2A11,11,0,0,1,38,32a1,1,0,0,1,0,2,8.91,8.91,0,0,0-8.8,7.2A1,1,0,0,1,28.2,42Z"/></svg>