<svg id="Layer_1" data-name="Layer 1" xmlns="http://www.w3.org/2000/svg" viewBox="0 0 100 100"><defs><style>.cls-1{fill:none;stroke:#00594e;stroke-miterlimit:10;stroke-width:2px;}.cls-2{fill:#00594e;}</style></defs><circle class="cls-1" cx="50.27" cy="50" r="45.57"/><path class="cls-2" d="M56.37,50.64A14.73,14.73,0,0,0,60.08,41c0-7.71-6.93-18-10.1-18s-10.1,10.25-10.1,18S46.52,54.46,50,54.46C51.84,54.46,54.35,53,56.37,50.64ZM50,52.22c-2,0-7.86-4.41-7.86-11.23S48.3,25.69,50,25.27c1.68.41,7.86,8.93,7.86,15.72S52,52.22,50,52.22Z"/><path class="cls-2" d="M50,54.59c-3.5,0-10.23-5.74-10.23-13.6,0-3.45,1.45-7.91,3.88-11.94C45.85,25.37,48.4,22.9,50,22.9c3.21,0,10.23,10.32,10.23,18.09a14.86,14.86,0,0,1-3.75,9.73C54.42,53.07,51.88,54.59,50,54.59Zm0-31.44c-3.13,0-10,10.18-10,17.84s6.56,13.35,10,13.35c1.83,0,4.3-1.49,6.29-3.78h0A14.58,14.58,0,0,0,60,41C60,33.33,53.11,23.15,50,23.15Zm0,29.19c-2,0-8-4.46-8-11.35s6.22-15.41,8-15.84H50c1.68.41,8,9,8,15.84S52,52.34,50,52.34ZM50,25.4c-1.68.5-7.73,8.91-7.73,15.59S48,52.09,50,52.09s7.73-4.36,7.73-11.1S51.66,25.9,50,25.4Z"/><path class="cls-2" d="M41.87,58.45C36.42,53,24.27,50.65,22,52.89s.1,14.39,5.56,19.84A14.73,14.73,0,0,0,37,76.92c.36,0,.72,0,1.07,0,2.65,0,5-.69,6.17-1.85s2-4.15,1.81-7.22A14.7,14.7,0,0,0,41.87,58.45Zm.81,15.1C41.26,75,34,76,29.21,71.17S22.72,56,23.6,54.46c1.47-.89,11.86.75,16.66,5.55S44.1,72.1,42.68,73.55Z"/><path class="cls-2" d="M38.1,77.08l-.53,0L37,77a14.84,14.84,0,0,1-9.53-4.22c-2.44-2.44-4.57-6.62-5.7-11.18-1-4.17-1-7.72.14-8.84s4.67-1.17,8.84-.14c4.56,1.13,8.74,3.26,11.18,5.7h0a14.85,14.85,0,0,1,4.25,9.51c.22,3.11-.51,6-1.85,7.32C43.16,76.37,40.82,77.08,38.1,77.08ZM37,76.79l.54,0,.52,0c2.62,0,4.95-.7,6.08-1.82,1.29-1.29,2-4.08,1.78-7.12a14.63,14.63,0,0,0-4.17-9.35C36.37,53.12,24.34,50.76,22.12,53c-1.05,1.05-1.08,4.51-.07,8.6,1.11,4.52,3.22,8.66,5.63,11.06A14.6,14.6,0,0,0,37,76.79Zm1.05-1.94h0a12.62,12.62,0,0,1-8.95-3.59c-4.91-4.94-6.53-15.33-5.63-16.86l0,0h0c1.48-.9,12,.74,16.82,5.56s3.86,12.25,2.42,13.72h0C42.05,74.35,40.13,74.85,38.09,74.85Zm-14.4-20.3c-.82,1.56.91,11.8,5.61,16.53a12.36,12.36,0,0,0,8.78,3.52h0c2.31,0,3.95-.59,4.5-1.14C44,72,44.93,64.86,40.18,60.1S25.23,53.71,23.69,54.55Z"/><path class="cls-2" d="M58.09,58.45a14.74,14.74,0,0,0-4.18,9.44c-.21,3.08.5,5.91,1.81,7.23C56.88,76.28,59.23,77,61.9,77a9.48,9.48,0,0,0,1.06,0,14.69,14.69,0,0,0,9.45-4.2c5.46-5.45,7.8-17.6,5.56-19.84S63.54,53,58.09,58.45Zm12.7,12.7C66,76,58.72,75,57.32,73.53s-2.44-8.68,2.38-13.47c4-4,11.78-5.79,15.18-5.79a3.38,3.38,0,0,1,1.48.19C77.24,56,75.59,66.35,70.79,71.15Z"/><path class="cls-2" d="M61.9,77.1c-2.74,0-5.08-.71-6.27-1.89-1.33-1.35-2.06-4.22-1.85-7.32A14.86,14.86,0,0,1,58,58.36h0c2.44-2.44,6.63-4.57,11.2-5.7,4.18-1,7.74-1,8.86.14,2.27,2.27-.07,14.53-5.56,20A14.89,14.89,0,0,1,63,77.06,9.66,9.66,0,0,1,61.9,77.1ZM58.18,58.54A14.6,14.6,0,0,0,54,67.9c-.21,3,.49,5.84,1.78,7.13,1.12,1.12,3.45,1.82,6.09,1.82a9.3,9.3,0,0,0,1.05,0,14.56,14.56,0,0,0,9.37-4.17c5.42-5.41,7.77-17.45,5.56-19.66S63.6,53.11,58.18,58.54Zm3.71,16.3h-.06c-2,0-3.9-.5-4.6-1.22-1.44-1.47-2.47-8.83,2.38-13.65,4.06-4.06,12.08-5.82,15.27-5.82a3.23,3.23,0,0,1,1.53.2h0l0,0c.91,1.54-.68,11.93-5.59,16.84h0A12.69,12.69,0,0,1,61.89,74.84ZM75.21,54.38a1.77,1.77,0,0,0-.32,0c-3.17,0-11.09,1.73-15.1,5.75C55.05,64.86,56,72,57.41,73.44c.53.55,2.14,1.14,4.42,1.15h.06a12.4,12.4,0,0,0,8.81-3.53h0c4.69-4.69,6.39-14.9,5.58-16.5A3.25,3.25,0,0,0,75.21,54.38Z"/></svg>