<svg id="Layer_1" data-name="Layer 1" xmlns="http://www.w3.org/2000/svg" viewBox="0 0 100 100"><defs><style>.cls-1{fill:none;stroke:#00594e;stroke-miterlimit:10;stroke-width:2px;}.cls-2{fill:#00594e;}</style></defs><circle class="cls-1" cx="50.27" cy="50" r="45.57"/><path class="cls-2" d="M61.65,34.46l-.73,0h-.09a7.87,7.87,0,0,0-.84,0,8.73,8.73,0,0,0-6.54,3c-2.34,2.87-1.45,7.13.58,9.67a8.12,8.12,0,0,0,9,2.39,7.78,7.78,0,0,0-1.39-15Zm4.48,8.44A5.79,5.79,0,0,1,63,47.39l-.73.37v-.08a6,6,0,0,1-2,.34A6.05,6.05,0,0,1,56,46.28c-1.72-1.69-2.74-4.79-1.47-7a4.64,4.64,0,0,1,1.34-1.48,5.54,5.54,0,0,1,.82-.54,2,2,0,0,1,.61-.27,10.89,10.89,0,0,1,1.85-.47,5.7,5.7,0,0,1,.83-.09h.33l.23,0v0h.13l.36.06a5.82,5.82,0,0,1,5.06,6.45Z"/><path class="cls-2" d="M60.73,45.54a9.62,9.62,0,0,0,1.46-.79,2.48,2.48,0,0,0,1.11-1.59,4.4,4.4,0,0,0-.81-3.34h0a1.18,1.18,0,0,0-.66-.46.67.67,0,0,0-.24,0,1,1,0,0,0-.53.15.93.93,0,0,0-.45.59,1,1,0,0,0,.08.76,3,3,0,0,1,.61,1.36,2.86,2.86,0,0,1,0,.5l0,.25-.21.13a15.4,15.4,0,0,1-1.43.78,1,1,0,0,0-.32,1.35A1,1,0,0,0,60.73,45.54Z"/><path class="cls-2" d="M60.11,65.92l.34-.06,0-.06a1.56,1.56,0,0,1-.31,0A.33.33,0,0,0,60.11,65.92Z"/><path class="cls-2" d="M75.35,45.81a15.93,15.93,0,0,0,1.83-3.7c1.35-4.54-.8-10.06-5.11-13.11l-.32-.23c-1.9-1.13-4.26-.9-6.54-.68-.64.07-1.27.13-1.89.16a18.67,18.67,0,0,1-4.72-.19,19.13,19.13,0,0,1-4.45-1.95,12.45,12.45,0,0,0-9.46-.51,12.39,12.39,0,0,0-4.76,4l-.42.59-.4-.6a5.39,5.39,0,0,0-3.66-2.34h-.28a1.39,1.39,0,0,0-.59.13,51.87,51.87,0,0,0-11.51,7.91l-.09.07a.79.79,0,0,0-.22.19.88.88,0,0,0-.15,1.25,1.11,1.11,0,0,0,.58.47,9.05,9.05,0,0,1,3,1.39,3.42,3.42,0,0,1,1.08,3.46c-.27,2.34.21,3.84,1.63,5a8.09,8.09,0,0,0,1.87,1l.69.27-.52.54c-2.75,2.85-5.48,5.93-5.93,9.61a4.51,4.51,0,0,0,2.46,4.7,9.15,9.15,0,0,0,6.23.43,24.93,24.93,0,0,0,2.93-.93c.89-.32,1.82-.65,2.76-.89l.62-.16v.64a6.5,6.5,0,0,0,.36,2.05,3.37,3.37,0,0,0,3.13,2.09,14.06,14.06,0,0,0,1.93.07,1.82,1.82,0,0,1,.4,0H46l.1.07a1.54,1.54,0,0,1,.67,1,3.9,3.9,0,0,1-.37,2,6,6,0,0,0-.27.82,3.23,3.23,0,0,0,.33,2.42,4,4,0,0,0,3.52,2.18h0a1.36,1.36,0,0,0,.34,0h.12a.91.91,0,0,0,.39-.23l.1-.07c1.79-1,3.54-2.11,5.21-3.27l.91-.64c.6-.42,1.2-.84,1.81-1.24a29.35,29.35,0,0,1,2.92-1.58.72.72,0,0,0,.43-.36.65.65,0,0,0,0-.51l0-.12a1,1,0,0,0-.12-.36A1,1,0,0,0,61,66.28a1.86,1.86,0,0,0-.3.09h0l-.13-.29-.06.23h-.11a2.09,2.09,0,0,1-.43,0,2,2,0,0,1-1-.42l-.11-.11c-.39-.56.08-1.44.54-2.3l.34-.66.35,0c5.33.69,11,.71,12.94-4.26a9.59,9.59,0,0,0,.25-4.44,11.52,11.52,0,0,1,.17-4.41A17.29,17.29,0,0,1,75.35,45.81Zm-35.58,14a30.86,30.86,0,0,0-3.5,1c-.79.27-1.58.54-2.39.76a11.35,11.35,0,0,1-3.12.5,4.09,4.09,0,0,1-3.27-1.27c-1.48-1.69.17-4.39,1.06-5.84l.06-.09a34.4,34.4,0,0,1,4.55-5.31l.4-.56.4.56a2.08,2.08,0,0,1,.2.36,4,4,0,0,1,0,2.18A6.73,6.73,0,0,0,34,53a3.26,3.26,0,0,0,.87,2.31,5.66,5.66,0,0,0,2.15,1.26l.62.19A3.13,3.13,0,0,1,40,58.33a3.08,3.08,0,0,1,.19.94l0,.43ZM53.45,70.94c-1.24.8-2.43,1.52-3.65,2.22l-.11.06h-.14c-.7,0-1.14-.86-1.34-1.27a3,3,0,0,1,.15-2c.42-1.44.69-3.09-.48-4.33-1-1-2.07-1-3.48-1.09h-.48a1.74,1.74,0,0,1-1.51-.46l-.11-.16a4.34,4.34,0,0,1-.31-2c0-.3,0-.63,0-1,.11-1.78.22-3.46-1.15-4.71A6.45,6.45,0,0,0,38.61,55l-.4-.12c-.76-.22-1.79-.52-2.11-1.35a3.67,3.67,0,0,1,0-1.94,5,5,0,0,0,.13-1.21A4,4,0,0,0,35.38,48a5.08,5.08,0,0,0-2.56-1.29,7.14,7.14,0,0,1-2.55-1.12c-1.24-1-1.1-2.26-1-3.39A5.84,5.84,0,0,0,29,38.9a6,6,0,0,0-2.88-2.67l-.74-.32.62-.52c1-.8,1.94-1.56,2.93-2.25l.27-.19.29.18a.93.93,0,0,0,.54.16h0c2.58,0,2.72,2.39,2.81,4,0,.22,0,.45,0,.66a5.19,5.19,0,0,0,2.49,4.29,12.55,12.55,0,0,0,2.26,1l.36.11c.76.24,1.82.57,2.07,1.68a6.49,6.49,0,0,1-.14,2.7,7.6,7.6,0,0,0-.21,1.89,3.67,3.67,0,0,0,2.58,3.32,9.72,9.72,0,0,1,2.3,1,2.17,2.17,0,0,1,.89,2.42c0,.18,0,.37,0,.57a6.2,6.2,0,0,0,1.31,4.23,3.56,3.56,0,0,0,2,.81l.58,0a4,4,0,0,1,2.11.49,2.32,2.32,0,0,1,.42,2.17c0,.16,0,.31-.06.44a10.85,10.85,0,0,0,.15,2.41,4,4,0,0,0,1.58,2.68l.58.43Zm4.14-2.83c-.44.3-.9.6-1.35.92l-.29.21-.3-.22a.61.61,0,0,0-.21-.11c-1.88-.66-1.74-2.84-1.69-3.77.13-1.62.14-2.94-.87-4.07a3.29,3.29,0,0,0-2.08-.84l-.65-.06A3.45,3.45,0,0,1,48,59.59L48,59.47a5.06,5.06,0,0,1-.55-2.22,9.09,9.09,0,0,1,0-1.28,4.55,4.55,0,0,0-.08-1.73c-.4-1.25-1.56-2.19-3.63-3l-.36-.11a2,2,0,0,1-1.67-1.41,6.87,6.87,0,0,1,.17-2.45c.23-1.6.36-3.06-.56-4.27a5.51,5.51,0,0,0-2.83-1.65,10,10,0,0,1-2.14-.92c-1.5-.92-1.57-2.55-1.62-4a7.32,7.32,0,0,0-.29-2.13,4.49,4.49,0,0,0-2.19-2.5l-.81-.41.78-.47c.95-.57,1.93-1.11,2.9-1.61l.17-.09.19.05A3.26,3.26,0,0,1,37.87,33c0,.38-.09.78-.16,1.17A4.09,4.09,0,0,0,38,37.28c.61.87,2,1.31,3.28,1.74.57.19,1.1.37,1.58.58a3.54,3.54,0,0,1,2.28,2.3,4.63,4.63,0,0,1-.2,2.21,8.25,8.25,0,0,0-.22,1,2.52,2.52,0,0,0,.56,2.07,2.59,2.59,0,0,0,1.35.58,5.46,5.46,0,0,1,1.2.4c.22.11.49.22.78.35a8.15,8.15,0,0,1,2.69,1.6A3.37,3.37,0,0,1,51.81,53c0,.17,0,.34-.06.49a9.14,9.14,0,0,0-.08,2.9,3.36,3.36,0,0,0,1.57,1.69,4.59,4.59,0,0,0,1.65.4c1.29.18,2.89.39,3.17,2.09a4.45,4.45,0,0,1-.68,2.64,7.24,7.24,0,0,0-.43,1,2.87,2.87,0,0,0,.22,2.63,3.69,3.69,0,0,0,.47.51l.5.43ZM72.45,46.85a11.23,11.23,0,0,0-1.23,6.88l0,.42a7.18,7.18,0,0,1-.37,4.17,5.53,5.53,0,0,1-3,2.44,9.84,9.84,0,0,1-3.33.52,30.32,30.32,0,0,1-4.1-.38l-.38,0-.11-.4a4.15,4.15,0,0,0-1.61-2.82,4.56,4.56,0,0,0-2.2-1A3.82,3.82,0,0,1,53.74,56l-.25-.17,0-.3v-.18a3.38,3.38,0,0,0,.07-.63,8.34,8.34,0,0,1,.1-1.56,8.05,8.05,0,0,0-.13-2.89c-.52-1.76-2.23-2.6-3.87-3.42l-.88-.44a6.59,6.59,0,0,0-1.52-.67l-.66-.18.13-.48a5.31,5.31,0,0,0,.12-.6,3.68,3.68,0,0,1,.08-.44,6.53,6.53,0,0,0,.23-1.37,5.06,5.06,0,0,0-2.91-4.61A23,23,0,0,0,41.52,37a4.26,4.26,0,0,0-.47-.15,5.7,5.7,0,0,1-.73-.25A1.8,1.8,0,0,1,40,36.4h-.38l-.06-.5a14.48,14.48,0,0,1,.21-2.66l0-.15.11-.11a1.15,1.15,0,0,0,.14-.17c1.35-1.87,2.85-4,4.94-5.08s6-.87,8.12.16q.63.32,1.23.66a16.27,16.27,0,0,0,1.87.93,13.48,13.48,0,0,0,3.85.84,32.76,32.76,0,0,0,5.15-.13c1-.08,2-.16,3-.19a4.79,4.79,0,0,1,3.57,1.26,11.18,11.18,0,0,1,2.38,2.87,9.82,9.82,0,0,1,1.4,6.35v0a13.37,13.37,0,0,1-2.16,4.85C73,45.84,72.73,46.34,72.45,46.85Z"/></svg>