<svg id="Layer_1" data-name="Layer 1" xmlns="http://www.w3.org/2000/svg" viewBox="0 0 100 100"><defs><style>.cls-1{fill:none;stroke:#00594e;stroke-miterlimit:10;stroke-width:2px;}.cls-2{fill:#00594e;}</style></defs><circle class="cls-1" cx="50.27" cy="50" r="45.57"/><path class="cls-2" d="M75.75,38.35a27.18,27.18,0,0,1-3.14-3.54A18.2,18.2,0,0,1,71.44,33a18,18,0,0,0-1.84-2.65A22,22,0,0,0,54,23.05a22.27,22.27,0,0,0-16.33,6.22,4.58,4.58,0,0,1-2.14,1,22,22,0,0,0-14.18,9A22.34,22.34,0,0,0,47.12,73.37a2.24,2.24,0,0,1,1.54.19A22.74,22.74,0,0,0,60.55,77h.13A22.28,22.28,0,0,0,75.75,38.35ZM79.39,62A20.1,20.1,0,0,1,60.67,74.85h0a20.6,20.6,0,0,1-10.92-3.11,4.3,4.3,0,0,0-2.15-.55,3.62,3.62,0,0,0-1.16.17A20.21,20.21,0,0,1,23.08,40.5a19.84,19.84,0,0,1,12.85-8.1,6.6,6.6,0,0,0,3.2-1.59,20.24,20.24,0,0,1,14.8-5.64A19.84,19.84,0,0,1,68,31.79a16,16,0,0,1,1.6,2.33c.42.68.85,1.39,1.3,2a30.21,30.21,0,0,0,3.36,3.78A20,20,0,0,1,79.39,62Z"/><path class="cls-2" d="M54,40.45a11.44,11.44,0,1,0,11.4,11.44A11.43,11.43,0,0,0,54,40.45Zm0,20.76a9.32,9.32,0,1,1,9.28-9.32A9.31,9.31,0,0,1,54,61.21Z"/><path class="cls-2" d="M53.73,45.24a9.59,9.59,0,0,0-6.54,7.1A1.05,1.05,0,0,0,48,53.6l.23,0a1.07,1.07,0,0,0,1-.84,7.45,7.45,0,0,1,5.08-5.52,1.06,1.06,0,0,0-.61-2Z"/></svg>