<svg id="Layer_1" data-name="Layer 1" xmlns="http://www.w3.org/2000/svg" viewBox="0 0 100 100"><defs><style>.cls-1{fill:none;stroke:#00594e;stroke-miterlimit:10;stroke-width:2px;}.cls-2{fill:#00594e;}</style></defs><circle class="cls-1" cx="50.27" cy="50" r="45.57"/><path class="cls-2" d="M52.68,71.67l-2.5-.2v-.6c.9-12.6-13.5-19.8-14.1-20.2l1.1-2.2c.6.3,12,6.1,14.9,16.5,1.9-3.7,5.6-8.1,12.8-11.4l1,2.3C54.58,61,53,69.27,52.68,71.17Z"/><path class="cls-2" d="M65,66.67h-.6c-4.8-.3-7.3-2.7-8.6-4.8a13,13,0,0,1-1.4-10.6c2.4-6.1,12.3-12.5,26.9-7.5l1,.3-.1,1C80.78,57.17,73.18,66.67,65,66.67Zm6.3-22.1c-7.9,0-13.2,3.9-14.6,7.7a10,10,0,0,0,1.2,8.3,7.77,7.77,0,0,0,6.7,3.6c6.9.4,13.5-7.8,15-18.3A25.92,25.92,0,0,0,71.28,44.57Z"/><path class="cls-2" d="M37.58,65.77a13.92,13.92,0,0,1-3.9-.5c-11.4-2.6-18.2-18.7-15.3-35.9l.2-1h1c11.8-.5,19.5,3.1,23.9,6.2,5.4,3.8,8.9,9.2,9.3,14.3.3,3.7-1.6,9.7-5.9,13.4A13.5,13.5,0,0,1,37.58,65.77Zm-16.9-34.9c-2.3,15.5,3.6,29.7,13.5,32,4.3,1,8,.2,11-2.4a15.38,15.38,0,0,0,5.1-11.3C49.68,41.37,39.78,30.47,20.68,30.87Z"/></svg>