<svg id="Layer_1" data-name="Layer 1" xmlns="http://www.w3.org/2000/svg" viewBox="0 0 100 100"><defs><style>.cls-1{fill:#fff;}</style></defs><path class="cls-1" d="M62.73,34.71a2.85,2.85,0,1,0,2.85,2.84A2.84,2.84,0,0,0,62.73,34.71ZM50.08,38.36a12,12,0,1,0,12,12A12,12,0,0,0,50.08,38.36Zm0,19.61a7.66,7.66,0,1,1,7.66-7.66A7.67,7.67,0,0,1,50.08,58ZM74.2,40.38A14.57,14.57,0,0,0,59.62,25.8H40.38A14.57,14.57,0,0,0,25.8,40.38V59.62A14.57,14.57,0,0,0,40.38,74.2H59.62A14.57,14.57,0,0,0,74.2,59.62ZM69.64,59.62a10,10,0,0,1-10,10H40.38a10,10,0,0,1-10-10V40.38a10,10,0,0,1,10-10H59.62a10,10,0,0,1,10,10Z"/></svg>